<svg width="223" height="56" viewBox="0 0 223 56" fill="none" xmlns="http://www.w3.org/2000/svg">
<g clip-path="url(#clip0_488_3541)">
<path fill-rule="evenodd" clip-rule="evenodd" d="M18.6016 5.48389H37.4005L50.5177 18.6011V37.4L37.4005 50.5172H18.6016L5.48438 37.4V18.6011L18.6016 5.48389ZM19.0545 6.57728L6.57777 19.054V36.9471L19.0545 49.4238H36.9476L49.4243 36.9471V19.054L36.9476 6.57728H19.0545Z" fill="#42D3FF"/>
<path fill-rule="evenodd" clip-rule="evenodd" d="M28 0.977051L55.0231 28.0002L28 55.0233L0.976852 28.0002L28 0.977051ZM28 2.52335L2.52315 28.0002L28 53.4771L53.4769 28.0002L28 2.52335Z" fill="#42D3FF"/>
<path d="M19.783 32.7475V32.186L19.0586 32.6062L19.5403 33.4465L20.2684 33.0264L19.783 32.7475V32.7475Z" fill="#42D3FF"/>
<path d="M20.2684 33.0264L19.5403 33.4465L19.0586 32.6062L19.783 32.186V32.7475L20.2684 33.0264Z" fill="#42D3FF"/>
<path d="M36.9468 22.5549L28.2428 17.531C28.0943 17.4441 27.9096 17.4441 27.7575 17.531L19.0571 22.5549C18.905 22.6418 18.8145 22.8012 18.8145 22.9751V33.0264C18.8145 33.2003 18.905 33.3597 19.0571 33.4466L27.7575 38.4705C27.8335 38.514 27.9168 38.5357 28.0001 38.5357C28.0835 38.5357 28.1704 38.514 28.2428 38.4705L36.9468 33.4466C37.0989 33.3597 37.1895 33.2003 37.1895 33.0264V22.9751C37.1895 22.8012 37.0989 22.6418 36.9468 22.5549ZM20.2669 33.0264L28.0001 28.5604L35.7334 33.0264L28.0001 37.4925L20.2669 33.0264L19.5389 33.4466L19.0571 32.6063L19.7816 32.1861V23.2576L28.0001 18.5126L35.7334 22.9751L19.7816 32.1861V32.7475L20.2669 33.0264V33.0264Z" fill="#42D3FF"/>
</g>
<path d="M80.7539 18.9375V36H77.8359V18.9375H80.7539ZM86.1094 18.9375V21.2812H72.5273V18.9375H86.1094ZM89.7103 25.7344V36H86.8861V23.3203H89.5814L89.7103 25.7344ZM93.5892 23.2383L93.5658 25.8633C93.3939 25.832 93.2064 25.8086 93.0033 25.793C92.808 25.7773 92.6127 25.7695 92.4173 25.7695C91.933 25.7695 91.5072 25.8398 91.14 25.9805C90.7728 26.1133 90.4642 26.3086 90.2142 26.5664C89.972 26.8164 89.7845 27.1211 89.6517 27.4805C89.5189 27.8398 89.4408 28.2422 89.4173 28.6875L88.7728 28.7344C88.7728 27.9375 88.8509 27.1992 89.0072 26.5195C89.1634 25.8398 89.3978 25.2422 89.7103 24.7266C90.0306 24.2109 90.4291 23.8086 90.9056 23.5195C91.39 23.2305 91.9486 23.0859 92.5814 23.0859C92.7533 23.0859 92.9369 23.1016 93.1322 23.1328C93.3353 23.1641 93.4877 23.1992 93.5892 23.2383ZM98.0222 23.3203V36H95.1863V23.3203H98.0222ZM94.9988 19.9922C94.9988 19.5625 95.1394 19.207 95.4206 18.9258C95.7097 18.6367 96.1081 18.4922 96.6159 18.4922C97.1159 18.4922 97.5105 18.6367 97.7995 18.9258C98.0886 19.207 98.2331 19.5625 98.2331 19.9922C98.2331 20.4141 98.0886 20.7656 97.7995 21.0469C97.5105 21.3281 97.1159 21.4688 96.6159 21.4688C96.1081 21.4688 95.7097 21.3281 95.4206 21.0469C95.1394 20.7656 94.9988 20.4141 94.9988 19.9922ZM103.779 18V36H100.943V18H103.779ZM109.302 18V36H106.49V18H109.302ZM108.81 29.1914L107.896 29.1797C107.904 28.3047 108.025 27.4961 108.259 26.7539C108.501 26.0117 108.837 25.3672 109.267 24.8203C109.705 24.2656 110.228 23.8398 110.837 23.543C111.447 23.2383 112.123 23.0859 112.865 23.0859C113.49 23.0859 114.052 23.1719 114.552 23.3438C115.06 23.5156 115.498 23.793 115.865 24.1758C116.232 24.5508 116.509 25.043 116.697 25.6523C116.892 26.2539 116.99 26.9883 116.99 27.8555V36H114.154V27.832C114.154 27.2227 114.064 26.7383 113.884 26.3789C113.712 26.0195 113.458 25.7617 113.123 25.6055C112.787 25.4414 112.376 25.3594 111.892 25.3594C111.384 25.3594 110.935 25.4609 110.544 25.6641C110.162 25.8672 109.841 26.1445 109.583 26.4961C109.326 26.8477 109.13 27.2539 108.998 27.7148C108.873 28.1758 108.81 28.668 108.81 29.1914ZM126.638 33.457V27.4102C126.638 26.957 126.555 26.5664 126.391 26.2383C126.227 25.9102 125.977 25.6562 125.641 25.4766C125.313 25.2969 124.899 25.207 124.399 25.207C123.938 25.207 123.54 25.2852 123.204 25.4414C122.868 25.5977 122.606 25.8086 122.419 26.0742C122.231 26.3398 122.138 26.6406 122.138 26.9766H119.325C119.325 26.4766 119.446 25.9922 119.688 25.5234C119.93 25.0547 120.282 24.6367 120.743 24.2695C121.204 23.9023 121.755 23.6133 122.395 23.4023C123.036 23.1914 123.755 23.0859 124.552 23.0859C125.505 23.0859 126.348 23.2461 127.083 23.5664C127.825 23.8867 128.407 24.3711 128.829 25.0195C129.259 25.6602 129.473 26.4648 129.473 27.4336V33.0703C129.473 33.6484 129.513 34.168 129.591 34.6289C129.677 35.082 129.798 35.4766 129.954 35.8125V36H127.059C126.927 35.6953 126.821 35.3086 126.743 34.8398C126.673 34.3633 126.638 33.9023 126.638 33.457ZM127.048 28.2891L127.071 30.0352H125.044C124.52 30.0352 124.059 30.0859 123.661 30.1875C123.263 30.2812 122.93 30.4219 122.665 30.6094C122.399 30.7969 122.2 31.0234 122.067 31.2891C121.934 31.5547 121.868 31.8555 121.868 32.1914C121.868 32.5273 121.946 32.8359 122.102 33.1172C122.259 33.3906 122.485 33.6055 122.782 33.7617C123.087 33.918 123.454 33.9961 123.884 33.9961C124.462 33.9961 124.966 33.8789 125.395 33.6445C125.833 33.4023 126.177 33.1094 126.427 32.7656C126.677 32.4141 126.809 32.082 126.825 31.7695L127.739 33.0234C127.645 33.3438 127.485 33.6875 127.259 34.0547C127.032 34.4219 126.735 34.7734 126.368 35.1094C126.009 35.4375 125.575 35.707 125.067 35.918C124.567 36.1289 123.989 36.2344 123.333 36.2344C122.505 36.2344 121.766 36.0703 121.118 35.7422C120.47 35.4062 119.962 34.957 119.595 34.3945C119.227 33.8242 119.044 33.1797 119.044 32.4609C119.044 31.7891 119.169 31.1953 119.419 30.6797C119.677 30.1562 120.052 29.7188 120.544 29.3672C121.044 29.0156 121.653 28.75 122.372 28.5703C123.091 28.3828 123.911 28.2891 124.833 28.2891H127.048Z" fill="#E1E1E6"/>
<path d="M149.132 33.668V36H140.074V33.668H149.132ZM140.906 18.9375V36H137.964V18.9375H140.906ZM147.949 26.0625V28.3594H140.074V26.0625H147.949ZM149.074 18.9375V21.2812H140.074V18.9375H149.074ZM153.05 23.3203L155.464 27.5273L157.925 23.3203H161.03L157.186 29.543L161.183 36H158.077L155.499 31.6172L152.921 36H149.804L153.788 29.543L149.956 23.3203H153.05ZM165.44 25.7578V40.875H162.615V23.3203H165.217L165.44 25.7578ZM173.701 29.543V29.7891C173.701 30.7109 173.592 31.5664 173.373 32.3555C173.162 33.1367 172.846 33.8203 172.424 34.4062C172.01 34.9844 171.498 35.4336 170.889 35.7539C170.28 36.0742 169.576 36.2344 168.78 36.2344C167.99 36.2344 167.299 36.0898 166.705 35.8008C166.119 35.5039 165.623 35.0859 165.217 34.5469C164.811 34.0078 164.483 33.375 164.233 32.6484C163.99 31.9141 163.819 31.1094 163.717 30.2344V29.2852C163.819 28.3555 163.99 27.5117 164.233 26.7539C164.483 25.9961 164.811 25.3438 165.217 24.7969C165.623 24.25 166.119 23.8281 166.705 23.5312C167.291 23.2344 167.975 23.0859 168.756 23.0859C169.553 23.0859 170.26 23.2422 170.877 23.5547C171.494 23.8594 172.014 24.2969 172.436 24.8672C172.858 25.4297 173.174 26.1094 173.385 26.9062C173.596 27.6953 173.701 28.5742 173.701 29.543ZM170.877 29.7891V29.543C170.877 28.957 170.823 28.4141 170.713 27.9141C170.604 27.4062 170.432 26.9609 170.198 26.5781C169.963 26.1953 169.662 25.8984 169.295 25.6875C168.936 25.4688 168.502 25.3594 167.994 25.3594C167.494 25.3594 167.065 25.4453 166.705 25.6172C166.346 25.7812 166.045 26.0117 165.803 26.3086C165.561 26.6055 165.373 26.9531 165.24 27.3516C165.108 27.7422 165.014 28.168 164.959 28.6289V30.9023C165.053 31.4648 165.213 31.9805 165.44 32.4492C165.666 32.918 165.987 33.293 166.401 33.5742C166.823 33.8477 167.362 33.9844 168.018 33.9844C168.526 33.9844 168.959 33.875 169.319 33.6562C169.678 33.4375 169.971 33.1367 170.198 32.7539C170.432 32.3633 170.604 31.9141 170.713 31.4062C170.823 30.8984 170.877 30.3594 170.877 29.7891ZM178.767 18V36H175.931V18H178.767ZM180.962 29.8008V29.5312C180.962 28.6172 181.095 27.7695 181.36 26.9883C181.626 26.1992 182.009 25.5156 182.509 24.9375C183.017 24.3516 183.634 23.8984 184.36 23.5781C185.095 23.25 185.923 23.0859 186.845 23.0859C187.774 23.0859 188.603 23.25 189.329 23.5781C190.063 23.8984 190.685 24.3516 191.192 24.9375C191.7 25.5156 192.087 26.1992 192.353 26.9883C192.618 27.7695 192.751 28.6172 192.751 29.5312V29.8008C192.751 30.7148 192.618 31.5625 192.353 32.3438C192.087 33.125 191.7 33.8086 191.192 34.3945C190.685 34.9727 190.067 35.4258 189.341 35.7539C188.614 36.0742 187.79 36.2344 186.868 36.2344C185.938 36.2344 185.106 36.0742 184.372 35.7539C183.645 35.4258 183.028 34.9727 182.52 34.3945C182.013 33.8086 181.626 33.125 181.36 32.3438C181.095 31.5625 180.962 30.7148 180.962 29.8008ZM183.786 29.5312V29.8008C183.786 30.3711 183.845 30.9102 183.962 31.418C184.079 31.9258 184.263 32.3711 184.513 32.7539C184.763 33.1367 185.083 33.4375 185.474 33.6562C185.864 33.875 186.329 33.9844 186.868 33.9844C187.392 33.9844 187.845 33.875 188.228 33.6562C188.618 33.4375 188.938 33.1367 189.188 32.7539C189.438 32.3711 189.622 31.9258 189.739 31.418C189.864 30.9102 189.927 30.3711 189.927 29.8008V29.5312C189.927 28.9688 189.864 28.4375 189.739 27.9375C189.622 27.4297 189.435 26.9805 189.177 26.5898C188.927 26.1992 188.606 25.8945 188.216 25.6758C187.833 25.4492 187.376 25.3359 186.845 25.3359C186.313 25.3359 185.853 25.4492 185.462 25.6758C185.079 25.8945 184.763 26.1992 184.513 26.5898C184.263 26.9805 184.079 27.4297 183.962 27.9375C183.845 28.4375 183.786 28.9688 183.786 29.5312ZM197.594 25.7344V36H194.77V23.3203H197.465L197.594 25.7344ZM201.473 23.2383L201.45 25.8633C201.278 25.832 201.09 25.8086 200.887 25.793C200.692 25.7773 200.496 25.7695 200.301 25.7695C199.817 25.7695 199.391 25.8398 199.024 25.9805C198.657 26.1133 198.348 26.3086 198.098 26.5664C197.856 26.8164 197.668 27.1211 197.535 27.4805C197.403 27.8398 197.325 28.2422 197.301 28.6875L196.657 28.7344C196.657 27.9375 196.735 27.1992 196.891 26.5195C197.047 25.8398 197.282 25.2422 197.594 24.7266C197.914 24.2109 198.313 23.8086 198.789 23.5195C199.274 23.2305 199.832 23.0859 200.465 23.0859C200.637 23.0859 200.821 23.1016 201.016 23.1328C201.219 23.1641 201.371 23.1992 201.473 23.2383ZM208.238 36.2344C207.3 36.2344 206.453 36.082 205.695 35.7773C204.945 35.4648 204.304 35.0312 203.773 34.4766C203.25 33.9219 202.847 33.2695 202.566 32.5195C202.285 31.7695 202.144 30.9609 202.144 30.0938V29.625C202.144 28.6328 202.289 27.7344 202.578 26.9297C202.867 26.125 203.269 25.4375 203.785 24.8672C204.3 24.2891 204.91 23.8477 205.613 23.543C206.316 23.2383 207.078 23.0859 207.898 23.0859C208.804 23.0859 209.597 23.2383 210.277 23.543C210.957 23.8477 211.519 24.2773 211.965 24.832C212.418 25.3789 212.754 26.0312 212.972 26.7891C213.199 27.5469 213.312 28.3828 213.312 29.2969V30.5039H203.515V28.4766H210.523V28.2539C210.508 27.7461 210.406 27.2695 210.218 26.8242C210.039 26.3789 209.761 26.0195 209.386 25.7461C209.011 25.4727 208.511 25.3359 207.886 25.3359C207.418 25.3359 207 25.4375 206.633 25.6406C206.273 25.8359 205.972 26.1211 205.73 26.4961C205.488 26.8711 205.3 27.3242 205.168 27.8555C205.043 28.3789 204.98 28.9688 204.98 29.625V30.0938C204.98 30.6484 205.054 31.1641 205.203 31.6406C205.359 32.1094 205.586 32.5195 205.883 32.8711C206.179 33.2227 206.539 33.5 206.961 33.7031C207.383 33.8984 207.863 33.9961 208.402 33.9961C209.082 33.9961 209.687 33.8594 210.218 33.5859C210.75 33.3125 211.211 32.9258 211.601 32.4258L213.09 33.8672C212.816 34.2656 212.461 34.6484 212.023 35.0156C211.586 35.375 211.05 35.668 210.418 35.8945C209.793 36.1211 209.066 36.2344 208.238 36.2344ZM217.991 25.7344V36H215.167V23.3203H217.862L217.991 25.7344ZM221.87 23.2383L221.847 25.8633C221.675 25.832 221.487 25.8086 221.284 25.793C221.089 25.7773 220.894 25.7695 220.698 25.7695C220.214 25.7695 219.788 25.8398 219.421 25.9805C219.054 26.1133 218.745 26.3086 218.495 26.5664C218.253 26.8164 218.065 27.1211 217.933 27.4805C217.8 27.8398 217.722 28.2422 217.698 28.6875L217.054 28.7344C217.054 27.9375 217.132 27.1992 217.288 26.5195C217.444 25.8398 217.679 25.2422 217.991 24.7266C218.312 24.2109 218.71 23.8086 219.187 23.5195C219.671 23.2305 220.23 23.0859 220.862 23.0859C221.034 23.0859 221.218 23.1016 221.413 23.1328C221.616 23.1641 221.769 23.1992 221.87 23.2383Z" fill="#42D3FF"/>
<defs>
<clipPath id="clip0_488_3541">
<rect width="56" height="56" fill="white"/>
</clipPath>
</defs>
</svg>
