<svg width="196" height="56" viewBox="0 0 196 56" fill="none" xmlns="http://www.w3.org/2000/svg">
<g clip-path="url(#clip0_488_3518)">
<path fill-rule="evenodd" clip-rule="evenodd" d="M18.5977 5.48291H37.3966L50.5138 18.6001V37.399L37.3966 50.5162H18.5977L5.48047 37.399V18.6001L18.5977 5.48291ZM19.0506 6.57631L6.57387 19.053V36.9461L19.0506 49.4229H36.9437L49.4204 36.9461V19.053L36.9437 6.57631H19.0506Z" fill="#00B37E"/>
<path fill-rule="evenodd" clip-rule="evenodd" d="M28 0.977051L55.0231 28.0002L28 55.0233L0.976852 28.0002L28 0.977051ZM28 2.52335L2.52315 28.0002L28 53.477L53.4769 28.0002L28 2.52335Z" fill="#00B37E"/>
<path d="M36.0988 18.4451C35.9612 18.2858 35.7439 18.2133 35.5048 18.264L18.441 22.8424C18.2418 22.904 18.0897 23.0597 18.0353 23.2626C17.9846 23.4618 18.0462 23.6755 18.1911 23.8204L20.6396 26.2689L17.0211 27.2433C16.8219 27.3012 16.6698 27.4606 16.6191 27.6634C16.5684 27.8627 16.63 28.0764 16.7748 28.2212L26.2648 37.704C26.3771 37.8162 26.5292 37.8778 26.6813 37.8778C26.7284 37.8778 26.7791 37.8706 26.8262 37.8597C27.0254 37.809 27.1848 37.6532 27.25 37.4395L28.2099 33.8392L30.6729 36.3058C30.7852 36.4145 30.9337 36.4761 31.0858 36.4761C31.1329 36.4761 31.1836 36.4688 31.2307 36.4579C31.4336 36.4072 31.5893 36.2551 31.6545 36.0414L36.222 18.9885C36.2763 18.8001 36.2292 18.5937 36.0988 18.4451ZM26.4821 36.5485L17.9303 28.0039L21.4329 27.0622L27.4166 33.0459L26.4821 36.5485ZM30.8902 35.1467L28.4996 32.7561L30.7127 24.4941C30.7779 24.2876 30.72 24.0631 30.5679 23.9109C30.4157 23.7588 30.1948 23.7008 29.9992 23.7588L21.7227 25.9792L19.3465 23.603L35.1136 19.3724L30.8902 35.1467Z" fill="#00B37E"/>
</g>
<path d="M80.7539 18.9375V36H77.8359V18.9375H80.7539ZM86.1094 18.9375V21.2812H72.5273V18.9375H86.1094ZM89.7103 25.7344V36H86.8861V23.3203H89.5814L89.7103 25.7344ZM93.5892 23.2383L93.5658 25.8633C93.3939 25.832 93.2064 25.8086 93.0033 25.793C92.808 25.7773 92.6127 25.7695 92.4173 25.7695C91.933 25.7695 91.5072 25.8398 91.14 25.9805C90.7728 26.1133 90.4642 26.3086 90.2142 26.5664C89.972 26.8164 89.7845 27.1211 89.6517 27.4805C89.5189 27.8398 89.4408 28.2422 89.4173 28.6875L88.7728 28.7344C88.7728 27.9375 88.8509 27.1992 89.0072 26.5195C89.1634 25.8398 89.3978 25.2422 89.7103 24.7266C90.0306 24.2109 90.4291 23.8086 90.9056 23.5195C91.39 23.2305 91.9486 23.0859 92.5814 23.0859C92.7533 23.0859 92.9369 23.1016 93.1322 23.1328C93.3353 23.1641 93.4877 23.1992 93.5892 23.2383ZM98.0222 23.3203V36H95.1863V23.3203H98.0222ZM94.9988 19.9922C94.9988 19.5625 95.1394 19.207 95.4206 18.9258C95.7097 18.6367 96.1081 18.4922 96.6159 18.4922C97.1159 18.4922 97.5105 18.6367 97.7995 18.9258C98.0886 19.207 98.2331 19.5625 98.2331 19.9922C98.2331 20.4141 98.0886 20.7656 97.7995 21.0469C97.5105 21.3281 97.1159 21.4688 96.6159 21.4688C96.1081 21.4688 95.7097 21.3281 95.4206 21.0469C95.1394 20.7656 94.9988 20.4141 94.9988 19.9922ZM103.779 18V36H100.943V18H103.779ZM109.302 18V36H106.49V18H109.302ZM108.81 29.1914L107.896 29.1797C107.904 28.3047 108.025 27.4961 108.259 26.7539C108.501 26.0117 108.837 25.3672 109.267 24.8203C109.705 24.2656 110.228 23.8398 110.837 23.543C111.447 23.2383 112.123 23.0859 112.865 23.0859C113.49 23.0859 114.052 23.1719 114.552 23.3438C115.06 23.5156 115.498 23.793 115.865 24.1758C116.232 24.5508 116.509 25.043 116.697 25.6523C116.892 26.2539 116.99 26.9883 116.99 27.8555V36H114.154V27.832C114.154 27.2227 114.064 26.7383 113.884 26.3789C113.712 26.0195 113.458 25.7617 113.123 25.6055C112.787 25.4414 112.376 25.3594 111.892 25.3594C111.384 25.3594 110.935 25.4609 110.544 25.6641C110.162 25.8672 109.841 26.1445 109.583 26.4961C109.326 26.8477 109.13 27.2539 108.998 27.7148C108.873 28.1758 108.81 28.668 108.81 29.1914ZM126.638 33.457V27.4102C126.638 26.957 126.555 26.5664 126.391 26.2383C126.227 25.9102 125.977 25.6562 125.641 25.4766C125.313 25.2969 124.899 25.207 124.399 25.207C123.938 25.207 123.54 25.2852 123.204 25.4414C122.868 25.5977 122.606 25.8086 122.419 26.0742C122.231 26.3398 122.138 26.6406 122.138 26.9766H119.325C119.325 26.4766 119.446 25.9922 119.688 25.5234C119.93 25.0547 120.282 24.6367 120.743 24.2695C121.204 23.9023 121.755 23.6133 122.395 23.4023C123.036 23.1914 123.755 23.0859 124.552 23.0859C125.505 23.0859 126.348 23.2461 127.083 23.5664C127.825 23.8867 128.407 24.3711 128.829 25.0195C129.259 25.6602 129.473 26.4648 129.473 27.4336V33.0703C129.473 33.6484 129.513 34.168 129.591 34.6289C129.677 35.082 129.798 35.4766 129.954 35.8125V36H127.059C126.927 35.6953 126.821 35.3086 126.743 34.8398C126.673 34.3633 126.638 33.9023 126.638 33.457ZM127.048 28.2891L127.071 30.0352H125.044C124.52 30.0352 124.059 30.0859 123.661 30.1875C123.263 30.2812 122.93 30.4219 122.665 30.6094C122.399 30.7969 122.2 31.0234 122.067 31.2891C121.934 31.5547 121.868 31.8555 121.868 32.1914C121.868 32.5273 121.946 32.8359 122.102 33.1172C122.259 33.3906 122.485 33.6055 122.782 33.7617C123.087 33.918 123.454 33.9961 123.884 33.9961C124.462 33.9961 124.966 33.8789 125.395 33.6445C125.833 33.4023 126.177 33.1094 126.427 32.7656C126.677 32.4141 126.809 32.082 126.825 31.7695L127.739 33.0234C127.645 33.3438 127.485 33.6875 127.259 34.0547C127.032 34.4219 126.735 34.7734 126.368 35.1094C126.009 35.4375 125.575 35.707 125.067 35.918C124.567 36.1289 123.989 36.2344 123.333 36.2344C122.505 36.2344 121.766 36.0703 121.118 35.7422C120.47 35.4062 119.962 34.957 119.595 34.3945C119.227 33.8242 119.044 33.1797 119.044 32.4609C119.044 31.7891 119.169 31.1953 119.419 30.6797C119.677 30.1562 120.052 29.7188 120.544 29.3672C121.044 29.0156 121.653 28.75 122.372 28.5703C123.091 28.3828 123.911 28.2891 124.833 28.2891H127.048Z" fill="#E1E1E6"/>
<path d="M141.105 18.9375V36H138.164V18.9375H141.105ZM152.241 23.3203H154.808V35.6484C154.808 36.7891 154.565 37.7578 154.081 38.5547C153.597 39.3516 152.921 39.957 152.054 40.3711C151.186 40.793 150.183 41.0039 149.042 41.0039C148.558 41.0039 148.018 40.9336 147.425 40.793C146.839 40.6523 146.268 40.4258 145.714 40.1133C145.167 39.8086 144.71 39.4062 144.343 38.9062L145.667 37.2422C146.12 37.7812 146.62 38.1758 147.167 38.4258C147.714 38.6758 148.288 38.8008 148.89 38.8008C149.538 38.8008 150.089 38.6797 150.542 38.4375C151.003 38.2031 151.358 37.8555 151.608 37.3945C151.858 36.9336 151.983 36.3711 151.983 35.707V26.1914L152.241 23.3203ZM143.628 29.8008V29.5547C143.628 28.5938 143.745 27.7188 143.979 26.9297C144.214 26.1328 144.55 25.4492 144.987 24.8789C145.425 24.3008 145.956 23.8594 146.581 23.5547C147.206 23.2422 147.913 23.0859 148.702 23.0859C149.522 23.0859 150.222 23.2344 150.8 23.5312C151.386 23.8281 151.874 24.2539 152.265 24.8086C152.655 25.3555 152.96 26.0117 153.179 26.7773C153.405 27.5352 153.573 28.3789 153.683 29.3086V30.0938C153.581 31 153.409 31.8281 153.167 32.5781C152.925 33.3281 152.604 33.9766 152.206 34.5234C151.808 35.0703 151.315 35.4922 150.729 35.7891C150.151 36.0859 149.468 36.2344 148.679 36.2344C147.905 36.2344 147.206 36.0742 146.581 35.7539C145.964 35.4336 145.433 34.9844 144.987 34.4062C144.55 33.8281 144.214 33.1484 143.979 32.3672C143.745 31.5781 143.628 30.7227 143.628 29.8008ZM146.452 29.5547V29.8008C146.452 30.3789 146.507 30.918 146.616 31.418C146.733 31.918 146.909 32.3594 147.143 32.7422C147.386 33.1172 147.69 33.4141 148.058 33.6328C148.433 33.8438 148.874 33.9492 149.382 33.9492C150.046 33.9492 150.589 33.8086 151.011 33.5273C151.44 33.2461 151.768 32.8672 151.995 32.3906C152.229 31.9062 152.393 31.3672 152.487 30.7734V28.6523C152.44 28.1914 152.343 27.7617 152.194 27.3633C152.054 26.9648 151.862 26.6172 151.62 26.3203C151.378 26.0156 151.073 25.7812 150.706 25.6172C150.339 25.4453 149.905 25.3594 149.405 25.3594C148.897 25.3594 148.456 25.4688 148.081 25.6875C147.706 25.9062 147.397 26.207 147.155 26.5898C146.921 26.9727 146.745 27.418 146.628 27.9258C146.511 28.4336 146.452 28.9766 146.452 29.5547ZM160.178 26.0273V36H157.354V23.3203H160.014L160.178 26.0273ZM159.674 29.1914L158.76 29.1797C158.768 28.2812 158.893 27.457 159.135 26.707C159.385 25.957 159.729 25.3125 160.166 24.7734C160.612 24.2344 161.143 23.8203 161.76 23.5312C162.377 23.2344 163.065 23.0859 163.823 23.0859C164.432 23.0859 164.983 23.1719 165.475 23.3438C165.975 23.5078 166.401 23.7773 166.752 24.1523C167.112 24.5273 167.385 25.0156 167.573 25.6172C167.76 26.2109 167.854 26.9414 167.854 27.8086V36H165.018V27.7969C165.018 27.1875 164.928 26.707 164.748 26.3555C164.576 25.9961 164.323 25.7422 163.987 25.5938C163.658 25.4375 163.248 25.3594 162.756 25.3594C162.272 25.3594 161.838 25.4609 161.455 25.6641C161.073 25.8672 160.748 26.1445 160.483 26.4961C160.225 26.8477 160.026 27.2539 159.885 27.7148C159.744 28.1758 159.674 28.668 159.674 29.1914ZM173.4 23.3203V36H170.564V23.3203H173.4ZM170.377 19.9922C170.377 19.5625 170.517 19.207 170.798 18.9258C171.088 18.6367 171.486 18.4922 171.994 18.4922C172.494 18.4922 172.888 18.6367 173.177 18.9258C173.466 19.207 173.611 19.5625 173.611 19.9922C173.611 20.4141 173.466 20.7656 173.177 21.0469C172.888 21.3281 172.494 21.4688 171.994 21.4688C171.486 21.4688 171.088 21.3281 170.798 21.0469C170.517 20.7656 170.377 20.4141 170.377 19.9922ZM181.946 23.3203V25.3828H174.798V23.3203H181.946ZM176.86 20.2148H179.685V32.4961C179.685 32.8867 179.739 33.1875 179.849 33.3984C179.966 33.6016 180.126 33.7383 180.329 33.8086C180.532 33.8789 180.77 33.9141 181.044 33.9141C181.239 33.9141 181.427 33.9023 181.606 33.8789C181.786 33.8555 181.931 33.832 182.04 33.8086L182.052 35.9648C181.817 36.0352 181.544 36.0977 181.231 36.1523C180.927 36.207 180.575 36.2344 180.177 36.2344C179.528 36.2344 178.954 36.1211 178.454 35.8945C177.954 35.6602 177.563 35.2812 177.282 34.7578C177.001 34.2344 176.86 33.5391 176.86 32.6719V20.2148ZM189.356 36.2344C188.418 36.2344 187.571 36.082 186.813 35.7773C186.063 35.4648 185.422 35.0312 184.891 34.4766C184.368 33.9219 183.965 33.2695 183.684 32.5195C183.403 31.7695 183.262 30.9609 183.262 30.0938V29.625C183.262 28.6328 183.407 27.7344 183.696 26.9297C183.985 26.125 184.387 25.4375 184.903 24.8672C185.418 24.2891 186.028 23.8477 186.731 23.543C187.434 23.2383 188.196 23.0859 189.016 23.0859C189.922 23.0859 190.715 23.2383 191.395 23.543C192.075 23.8477 192.637 24.2773 193.082 24.832C193.535 25.3789 193.871 26.0312 194.09 26.7891C194.317 27.5469 194.43 28.3828 194.43 29.2969V30.5039H184.633V28.4766H191.641V28.2539C191.625 27.7461 191.524 27.2695 191.336 26.8242C191.157 26.3789 190.879 26.0195 190.504 25.7461C190.129 25.4727 189.629 25.3359 189.004 25.3359C188.535 25.3359 188.118 25.4375 187.75 25.6406C187.391 25.8359 187.09 26.1211 186.848 26.4961C186.606 26.8711 186.418 27.3242 186.285 27.8555C186.16 28.3789 186.098 28.9688 186.098 29.625V30.0938C186.098 30.6484 186.172 31.1641 186.321 31.6406C186.477 32.1094 186.703 32.5195 187 32.8711C187.297 33.2227 187.657 33.5 188.078 33.7031C188.5 33.8984 188.981 33.9961 189.52 33.9961C190.2 33.9961 190.805 33.8594 191.336 33.5859C191.868 33.3125 192.328 32.9258 192.719 32.4258L194.207 33.8672C193.934 34.2656 193.578 34.6484 193.141 35.0156C192.703 35.375 192.168 35.668 191.535 35.8945C190.91 36.1211 190.184 36.2344 189.356 36.2344Z" fill="#00B37E"/>
<defs>
<clipPath id="clip0_488_3518">
<rect width="56" height="56" fill="white"/>
</clipPath>
</defs>
</svg>
